# AST/ASF file generated using VICON BodyLanguage
# -----------------------------------------------
:version 1.10
:name VICON
:units
  mass 1.0
  length 0.45
  angle deg
:documentation
   .ast/.asf automatically generated from VICON data using
   VICON BodyBuilder and BodyLanguage model FoxedUp or BRILLIANT.MOD
:root
   order TX TY TZ RX RY RZ
   axis XYZ
   position 0 0 0  
   orientation 0 0 0 
:bonedata
  begin
     id 1 
     name lhipjoint
     direction 0.702568 -0.596508 0.388042 
     length 2.56661 
     axis 0 0 0  XYZ
  end
  begin
     id 2 
     name lfemur
     direction 0.34202 -0.939693 0  
     length 6.58374  
     axis 0 0 20  XYZ
    dof rx ry rz
    limits (-160.0 20.0)
           (-70.0 70.0)
           (-60.0 70.0)
  end
  begin
     id 3 
     name ltibia
     direction 0.34202 -0.939693 0   
     length 6.62538   
     axis 0 0 20   XYZ
    dof rx
    limits (-10.0 170.0)
  end
  begin
     id 4 
     name lfoot
     direction 0.10455 -0.287249 0.952133   
     length 2.26699   
     axis -90 7.62852e-016 20   XYZ
    dof rx rz
    limits (-45.0 90.0)
           (-70.0 20.0)
  end
  begin
     id 5 
     name ltoes
     direction 1.53572e-011 -4.22322e-011 1   
     length 1.12949   
     axis -90 7.62852e-016 20   XYZ
    dof rx
    limits (-90.0 20.0)
  end
  begin
     id 6 
     name rhipjoint
     direction -0.728055 -0.574632 0.373811   
     length 2.66432  
     axis 0 0 0  XYZ 
  end
  begin
     id 7 
     name rfemur
     direction -0.34202 -0.939693 0   
     length 6.66732   
     axis 0 0 -20   XYZ
    dof rx ry rz
    limits (-160.0 20.0)
           (-70.0 70.0)
           (-70.0 60.0)
  end
  begin
     id 8 
     name rtibia
     direction -0.34202 -0.939693 0   
     length 6.59288   
     axis 0 0 -20   XYZ
    dof rx
    limits (-10.0 170.0)
 end
 begin
     id 9 
     name rfoot
     direction -0.119193 -0.327479 0.93731   
     length 2.38061  
     axis -90 -7.62852e-016 -20   XYZ
    dof rx rz
    limits (-45.0 90.0)
           (-20.0 70.0)
  end
  begin
     id 10 
     name rtoes
     direction -1.53547e-011 -4.21827e-011 1   
     length 1.17899   
     axis -90 -7.62852e-016 -20   XYZ
    dof rx
    limits (-90.0 20.0)
  end
  begin
     id 11 
     name lowerback
     direction -0.000416114 0.999912 -0.0132284   
     length 2.12109   
     axis 0 0 0   XYZ
    dof rx ry rz
    limits (-20.0 45.0)
           (-30.0 30.0)
           (-30.0 30.0)
  end
  begin
     id 12 
     name upperback
     direction -0.00136371 0.99809 0.0617608   
     length 2.10067   
     axis 0 0 0   XYZ
    dof rx ry rz
    limits (-20.0 45.0)
           (-30.0 30.0)
           (-30.0 30.0)
  end
  begin
     id 13 
     name thorax
     direction -3.43026e-005 0.997776 0.0666515   
     length 2.10618   
     axis 0 0 0   XYZ
    dof rx ry rz
    limits (-20.0 45.0)
           (-30.0 30.0)
           (-30.0 30.0)
  end
  begin
     id 14 
     name lowerneck
     direction 0.0398646 0.998418 0.0396592   
     length 1.83817   
     axis 0 0 0   XYZ
    dof rx ry rz
    limits (-20.0 45.0)
           (-30.0 30.0)
           (-30.0 30.0)
  end
  begin
     id 15 
     name upperneck
     direction -0.0367268 0.961527 -0.272244   
     length 1.81975   
     axis 0 0 0   XYZ
    dof rx ry rz
    limits (-20.0 45.0)
           (-30.0 30.0)
           (-30.0 30.0)
  end
  begin
     id 16
     name head
     direction -0.0182665 0.99536 -0.0944669  
     length 1.86026  
     axis 0 0 0   XYZ
    dof rx ry rz
    limits (-20.0 45.0)
           (-30.0 30.0)
           (-30.0 30.0)
  end
  begin
     id 17 
     name lclavicle
     direction 0.924239 0.361045 0.124212  
     length 3.26878  
     axis 0 0 0   XYZ
    dof ry rz
    limits (-20.0 10.0)
           (0.0 20.0)
  end
  begin
     id 18 
     name lhumerus
     direction 1 -4.48968e-011 -2.56583e-027   
     length 4.58538   
     axis 180 -30 -90   XYZ
    dof rx ry rz
    limits (-60.0 90.0)
           (-90.0 90.0)
           (-90.0 90.0)
  end
  begin
     id 19
     name lradius
     direction 1 -4.4898e-011 -5.50375e-027   
     length 2.68935   
     axis 180 -30 -90   XYZ
    dof rx
    limits (-10.0 170.0)
  end
  begin
     id 20
     name lwrist
     direction 1 -4.48939e-011 -1.48955e-026   
     length 1.34468   
     axis 9.0955e-015 90 90   XYZ
    dof ry
    limits (-180.0 0.0)
 end
  begin
     id 21 
     name lhand
     direction 1 -4.48936e-011 -2.97907e-026   
     length 0.585058   
     axis 1.90115e-014 90 90   XYZ
    dof rx rz
    limits (-90.0 90.0)
           (-45.0 45.0)
  end
  begin
     id 22 
     name lfingers
     direction 1 -4.49082e-011 -5.96235e-026   
     length 0.471689   
     axis 3.80223e-014 90 90   XYZ
    dof rx
    limits (0.0 90.0)
  end
  begin
     id 23
     name lthumb
     direction 0.707107 -6.3489e-011 0.707107   
     length 0.677253   
     axis -90 45 -3.84942e-014   XYZ
    dof rx rz
    limits (-45.0 45.0)
           (-45.0 45.0)
  end
  begin
     id 24 
     name rclavicle
     direction -0.923098 0.371783 0.0983239   
     length 3.19656  
     axis 0 0 0   XYZ 
    dof ry rz
    limits (-10.0 20.0)
           (-20.0 0.0)
  end
  begin
     id 25 
     name rhumerus
     direction -1 -4.48976e-011 -2.5492e-027  
     length 4.4745   
     axis 180 30 90   XYZ
    dof rx ry rz
    limits (-90.0 60.0)
           (-90.0 90.0)
           (-90.0 90.0)
  end
  begin
     id 26 
     name rradius
     direction -1 -4.48941e-011 -4.36555e-027   
     length 2.93896   
     axis 180 30 90   XYZ
    dof rx
    limits (-10.0 170.0)
  end
  begin
     id 27 
     name rwrist
     direction -1 -4.49044e-011 -1.49032e-026   
     length 1.46948   
     axis 9.0955e-015 -90 -90   XYZ
    dof ry
    limits (-180.0 0.0)
  end
  begin
     id 28
     name rhand
     direction -1 -4.48826e-011 -2.97749e-026   
     length 0.405092   
     axis 1.90115e-014 -90 -90   XYZ
    dof rx rz
    limits (-90.0 90.0)
           (-45.0 45.0)
  end
  begin
     id 29
     name rfingers
     direction -1 -4.49209e-011 -5.96602e-026   
     length 0.326596   
     axis 3.80223e-014 -90 -90   XYZ
    dof rx
    limits (0.0 90.0)
  end
  begin
     id 30
     name rthumb
     direction -0.707107 -6.34776e-011 0.707107   
     length 0.468928   
     axis -90 -45 3.84942e-014   XYZ
    dof rx rz
    limits (-45.0 45.0)
           (-45.0 45.0)
  end
:hierarchy
  begin
    root lhipjoint rhipjoint lowerback
    lhipjoint lfemur
    lfemur ltibia
    ltibia lfoot
    lfoot ltoes
    rhipjoint rfemur
    rfemur rtibia
    rtibia rfoot
    rfoot rtoes
    lowerback upperback
    upperback thorax
    thorax lowerneck lclavicle rclavicle
    lowerneck upperneck
    upperneck head
    lclavicle lhumerus
    lhumerus lradius
    lradius lwrist
    lwrist lhand lthumb
    lhand lfingers
    rclavicle rhumerus
    rhumerus rradius
    rradius rwrist
    rwrist rhand rthumb
    rhand rfingers
  end

#!OML:ASF H:\Punching\Project 1\Capture day 1\Session 1\female.ASF
:FULLY-SPECIFIED
:DEGREES
438
root -1.24429 15.7274 4.40535 -31.5523 -32.8378 13.8504
lowerback 5.05978 -0.133571 9.49712
upperback 0.770485 0.0589433 -9.25878
thorax -2.01497 -0.111704 -15.7454
lowerneck 8.13106 13.9203 19.0267
upperneck 40.2656 24.3834 -11.9255
head 18.0459 12.0688 -5.21557
rclavicle 5.98342e-014 -2.46493e-014
rhumerus 4.36558 43.5346 -87.2497
rradius 118.532
rwrist -16.5439
rhand -28.5972 10.8433
rfingers 7.12502
rthumb -1.96272 -19.1274
lclavicle 5.98342e-014 -2.46493e-014
lhumerus -19.7079 0.0713961 65.3865
lradius 142.1
lwrist 1.78189
lhand -27.388 3.71174
lfingers 7.12502
lthumb -0.794799 33.69
rfemur 23.1079 14.6428 23.3014
rtibia 16.7904
rfoot -10.3331 1.28983
rtoes 14.684
lfemur -71.4746 7.68287 49.6172
ltibia 27.971
lfoot -40.2245 38.054
ltoes 45.8598
439
root -1.25232 15.7175 4.43254 -31.8206 -33.19 13.8632
lowerback 5.10978 -0.230525 9.63315
upperback 0.773811 -0.0609987 -9.20247
thorax -2.08032 -0.179088 -15.7569
lowerneck 8.24073 14.0101 19.219
upperneck 40.4508 24.5652 -11.9345
head 18.234 12.1708 -5.22121
rclavicle 2.62396e-014 5.52621e-014
rhumerus 4.93991 43.4195 -86.5562
rradius 118.289
rwrist -16.1153
rhand -28.6263 10.6588
rfingers 7.12502
rthumb -1.99078 -19.3117
lclavicle 2.62396e-014 5.52621e-014
lhumerus -19.6862 -0.151875 65.4822
lradius 142.352
lwrist 1.60004
lhand -27.3459 4.22267
lfingers 7.12502
lthumb -0.754178 34.2011
rfemur 23.3123 14.4375 23.2874
rtibia 16.9491
rfoot -10.5221 1.72884
rtoes 15.0278
lfemur -72.2981 8.58251 47.6261
ltibia 29.8951
lfoot -32.1513 43.4523
ltoes 40.8213
440
root -1.25954 15.7031 4.45815 -32.1882 -33.4881 13.8822
lowerback 5.30515 -0.343196 9.69265
upperback 0.834188 -0.197216 -9.15457
thorax -2.17218 -0.253125 -15.7291
lowerneck 8.31057 14.0915 19.405
upperneck 40.5564 24.717 -11.9498
head 18.3737 12.2583 -5.22831
rclavicle 8.34896e-014 -1.35174e-014
rhumerus 5.55392 43.2478 -85.8487
rradius 118.057
rwrist -15.4959
rhand -28.75 10.4689
rfingers 7.12502
rthumb -2.11022 -19.5004
lclavicle 8.34896e-014 -1.35174e-014
lhumerus -19.5616 -0.374741 65.5314
lradius 142.571
lwrist 1.40093
lhand -27.3082 4.71301
lfingers 7.12502
lthumb -0.717774 34.6915
rfemur 23.5639 14.2666 23.3044
rtibia 17.2353
rfoot -10.7554 2.09619
rtoes 15.3289
lfemur -73.3049 9.26684 45.534
ltibia 32.3033
lfoot -21.047 47.8128
ltoes 33.8616
441
root -1.26608 15.6852 4.48088 -32.6423 -33.7174 13.9385
lowerback 5.61965 -0.463551 9.63858
upperback 0.940945 -0.343366 -9.1211
thorax -2.28435 -0.330429 -15.6447
lowerneck 8.34232 14.1644 19.5738
upperneck 40.5815 24.8382 -11.9699
head 18.4593 12.3297 -5.23508
rclavicle -1.39149e-015 1.72943e-013
rhumerus 6.1646 43.0218 -85.1709
rradius 117.859
rwrist -14.7913
rhand -28.9121 10.2262
rfingers 7.12502
rthumb -2.26681 -19.7415
lclavicle -1.39149e-015 1.72943e-013
lhumerus -19.3523 -0.573066 65.5447
lradius 142.739
lwrist 1.21524
lhand -27.2971 5.03595
lfingers 7.12502
lthumb -0.707012 35.0145
rfemur 23.8239 14.1363 23.3261
rtibia 17.6675
rfoot -11.0442 2.34178
rtoes 15.6464
lfemur -76.0159 14.5524 35.6269
ltibia 35.0718
lfoot 1.33796 45.4434
ltoes 26.8226
442
root -1.27176 15.6655 4.49907 -33.1442 -33.8756 14.0428
lowerback 6.01257 -0.584515 9.47162
upperback 1.06952 -0.493896 -9.10288
thorax -2.41764 -0.409591 -15.5052
lowerneck 8.3584 14.2218 19.6958
upperneck 40.5331 24.9175 -11.9873
head 18.4776 12.3778 -5.23958
rclavicle -6.48038e-014 4.01545e-014
rhumerus 6.71478 42.7676 -84.5703
rradius 117.71
rwrist -14.1217
rhand -29.1141 9.98364
rfingers 7.12502
rthumb -2.46192 -19.9819
lclavicle -6.48038e-014 4.01545e-014
lhumerus -19.0872 -0.751036 65.5369
lradius 142.85
lwrist 1.05357
lhand -27.3332 5.23999
lfingers 7.12502
lthumb -0.741951 35.2184
rfemur 24.0457 14.0538 23.3403
rtibia 18.2367
rfoot -11.3851 2.44377
rtoes 15.958
lfemur -78.8448 18.3008 27.571
ltibia 38.1476
lfoot 14.9601 39.7112
ltoes 21.0277
443
root -1.27631 15.6457 4.51177 -33.6478 -33.9576 14.2022
lowerback 6.44147 -0.694918 9.20493
upperback 1.20011 -0.637421 -9.10636
thorax -2.56502 -0.485462 -15.3278
lowerneck 8.34706 14.2673 19.7796
upperneck 40.4344 24.9627 -11.9978
head 18.4494 12.4063 -5.23907
rclavicle -8.24956e-015 1.74931e-014
rhumerus 7.17112 42.4788 -84.0745
rradius 117.628
rwrist -13.5753
rhand -29.2922 9.71038
rfingers 7.12502
rthumb -2.63394 -20.2531
lclavicle -8.24956e-015 1.74931e-014
lhumerus -18.7788 -0.904458 65.5259
lradius 142.9
lwrist 0.932786
lhand -27.3841 5.32975
lfingers 7.12502
lthumb -0.791041 35.308
rfemur 24.1915 14.0242 23.3251
rtibia 18.9101
rfoot -11.7721 2.40897
rtoes 16.2388
lfemur -81.5191 20.9389 21.0242
ltibia 41.5185
lfoot 22.9825 33.7298
ltoes 16.0999
